<svg width="248" height="387" viewBox="0 0 248 387" fill="none" xmlns="http://www.w3.org/2000/svg">
<path d="M178.715 275.21H58.3487V286.365C58.3487 296.743 63.8943 297.52 69.2848 297.52H178.698C184.088 297.52 189.634 296.76 189.634 286.365V275.21H178.698H178.715ZM124 196.953C184.57 196.953 205.668 224.91 205.668 282.67V364.69H42.332V282.67C42.332 224.91 63.4293 196.953 124 196.953Z" fill="white"/>
<path d="M182.487 22.3096C207.769 22.3096 225.749 37.0388 225.749 37.0388V188.786H158.703V95.0922C158.703 89.4285 157.945 83.6093 147.577 83.6093C137.209 83.6093 136.452 89.4285 136.452 95.0922V179.893C132.49 179.6 128.374 179.41 124 179.41C119.625 179.41 115.509 179.6 111.548 179.893V95.0922C111.548 89.4285 110.79 83.6093 100.423 83.6093C90.0549 83.6093 89.2971 89.4285 89.2971 95.0922V188.786H22.251V37.0388C22.251 37.0388 40.231 22.3096 65.5132 22.3096C90.7954 22.3096 101.594 37.0388 124 37.0388C146.406 37.0388 157.204 22.3096 182.487 22.3096Z" fill="white"/>
</svg>
